<?xml version="1.0" encoding="UTF-8"?>
<svg version="1.1" xmlns="http://www.w3.org/2000/svg" width="225" height="225">
<path d="M0 0 C74.25 0 148.5 0 225 0 C225 74.25 225 148.5 225 225 C150.75 225 76.5 225 0 225 C0 150.75 0 76.5 0 0 Z " fill="#FEFEFE" transform="translate(0,0)"/>
<path d="M0 0 C1.010625 0.7425 2.02125 1.485 3.0625 2.25 C3.701875 2.8275 4.34125 3.405 5 4 C5 4.66 5 5.32 5 6 C5.99 6.33 6.98 6.66 8 7 C9.58433348 9.12149798 10.96079646 11.17330351 12.3125 13.4375 C12.90526733 14.42991699 12.90526733 14.42991699 13.51000977 15.44238281 C23.2368396 32.45593108 25.44455386 50.69069122 25.4375 69.9375 C25.43860275 71.24099899 25.43860275 71.24099899 25.43972778 72.5708313 C25.41073876 85.5950148 24.81169656 97.74238256 20 110 C19.7004541 110.7636084 19.4009082 111.5272168 19.09228516 112.31396484 C16.9429193 117.65249796 14.57378255 122.8524349 12 128 C11.34 128 10.68 128 10 128 C9.835 128.845625 9.67 129.69125 9.5 130.5625 C5.47857885 139.77825681 -6.08108052 145.87177278 -14.9375 149.75 C-37.8482516 158.71257075 -65.08657281 153.28381123 -87.22900391 144.07275391 C-91.9500482 141.95039014 -96.49923481 139.55288908 -101 137 C-101.58894043 136.66709961 -102.17788086 136.33419922 -102.78466797 135.99121094 C-116.4464051 128.15934931 -130.73820334 117.71842515 -139 104 C-139 103.34 -139 102.68 -139 102 C-139.66 102 -140.32 102 -141 102 C-142.13169701 99.64885408 -143.25541381 97.29440665 -144.375 94.9375 C-144.69210938 94.28072266 -145.00921875 93.62394531 -145.3359375 92.94726562 C-151.30411728 80.32705213 -152.42176152 65.69364871 -147.875 52.375 C-142.36118637 39.20653448 -133.71759901 26.43030879 -122 18 C-121.01 17.67 -120.02 17.34 -119 17 C-119 16.34 -119 15.68 -119 15 C-116.8828125 13.4921875 -116.8828125 13.4921875 -114.125 11.875 C-113.22007813 11.33617188 -112.31515625 10.79734375 -111.3828125 10.2421875 C-109 9 -109 9 -107 9 C-107 8.34 -107 7.68 -107 7 C-75.98083513 -12.9030819 -31.79918048 -23.55735207 0 0 Z " fill="#029DFE" transform="translate(175,42)"/>
<path d="M0 0 C1.53816628 -0.02398109 1.53816628 -0.02398109 3.10740662 -0.04844666 C4.22188675 -0.05380936 5.33636688 -0.05917206 6.48461914 -0.06469727 C8.20582726 -0.07823997 8.20582726 -0.07823997 9.96180725 -0.09205627 C12.39882794 -0.1065939 14.83588796 -0.11545418 17.27294922 -0.11914062 C20.97375219 -0.13095657 24.67284428 -0.18004216 28.37329102 -0.23071289 C30.74372561 -0.24018633 33.11417043 -0.24741695 35.48461914 -0.25219727 C36.5808812 -0.27172958 37.67714325 -0.2912619 38.80662537 -0.31138611 C47.74800447 -0.25981791 55.01064362 2.01443888 62.01977539 7.68139648 C62.70040039 8.54764648 63.38102539 9.41389648 64.08227539 10.30639648 C64.84540039 11.25514648 65.60852539 12.20389648 66.39477539 13.18139648 C69.75057627 19.41359812 69.2341619 28.24707452 67.35180664 34.88061523 C65.38883805 39.08697649 62.64370397 42.30729873 59.08227539 45.30639648 C58.42227539 45.30639648 57.76227539 45.30639648 57.08227539 45.30639648 C57.08227539 45.96639648 57.08227539 46.62639648 57.08227539 47.30639648 C57.76290039 47.53327148 58.44352539 47.76014648 59.14477539 47.99389648 C61.47720914 49.03604774 63.505522 50.0620899 65.64477539 51.43139648 C66.48202148 51.96120117 66.48202148 51.96120117 67.33618164 52.50170898 C72.44644231 57.78345491 73.83718373 64.03381441 73.76977539 71.18139648 C73.76107422 72.36221802 73.76107422 72.36221802 73.75219727 73.56689453 C73.46435578 80.69023689 71.33918937 85.37112925 66.08227539 90.30639648 C57.56215285 97.95078909 45.2249379 97.6180279 34.36743164 97.64233398 C32.77927895 97.65231918 32.77927895 97.65231918 31.15904236 97.6625061 C28.94491291 97.67254361 26.73075374 97.67732592 24.51660156 97.67700195 C21.12849192 97.68141771 17.74164347 97.71794762 14.35375977 97.75561523 C12.19165481 97.76147679 10.02954372 97.7654506 7.86743164 97.76733398 C6.35488548 97.78889053 6.35488548 97.78889053 4.81178284 97.81088257 C0.52676045 97.78288951 -2.18362854 97.71961575 -5.96679688 95.59008789 C-9.93171357 90.94888769 -10.21270589 86.4020206 -10.19238281 80.49023438 C-10.19749374 79.71885635 -10.20260468 78.94747833 -10.20787048 78.15272522 C-10.22173203 75.61142139 -10.22081237 73.0703898 -10.21850586 70.52905273 C-10.22239458 68.7569519 -10.22672962 66.984852 -10.23149109 65.2127533 C-10.23894583 61.50150529 -10.23866736 57.79035243 -10.23339844 54.07910156 C-10.22760375 49.32999562 -10.24453834 44.58127967 -10.26774311 39.8322382 C-10.282495 36.17331171 -10.28335019 32.51447884 -10.28023338 28.85552788 C-10.28074583 27.10488551 -10.28596916 25.35423779 -10.2960453 23.60362434 C-10.30842123 21.15281148 -10.30161157 18.70275445 -10.29003906 16.25195312 C-10.2976828 15.53332092 -10.30532654 14.81468872 -10.3132019 14.07427979 C-10.23536629 6.59340019 -8.10058856 0.09534988 0 0 Z " fill="#FAFCFD" transform="translate(100.917724609375,63.693603515625)"/>
<path d="M0 0 C4.47953669 -0.08133658 8.95757881 -0.14067156 13.4375 -0.1875 C14.69755859 -0.21263672 15.95761719 -0.23777344 17.25585938 -0.26367188 C32.86166487 -0.38591056 32.86166487 -0.38591056 39.0625 4.6875 C40.46706205 8.15208639 40.79133978 11.37422499 40 15 C37.82425584 17.69105198 36.08934144 19.45532928 33 21 C30.51900266 21.08649451 28.06655072 21.11565054 25.5859375 21.09765625 C24.85629791 21.0962413 24.12665833 21.09482635 23.37490845 21.09336853 C21.04156415 21.08776531 18.70831536 21.07521235 16.375 21.0625 C14.79427222 21.05748541 13.21354293 21.05292243 11.6328125 21.04882812 C7.75514182 21.03864517 3.87767798 21.01907055 0 21 C0 14.07 0 7.14 0 0 Z " fill="#0493FC" transform="translate(113,121)"/>
<path d="M0 0 C4.18789248 -0.08117236 8.37420034 -0.14059104 12.5625 -0.1875 C13.74392578 -0.21263672 14.92535156 -0.23777344 16.14257812 -0.26367188 C22.5065707 -0.3171508 27.45407296 -0.28618058 33 3 C34.73899832 6.47799665 34.58979036 10.205682 34 14 C31.32798479 17.56268695 29.33539806 19.24704535 25 20 C23.0482673 20.08059997 21.09399582 20.10762243 19.140625 20.09765625 C18.02558594 20.09443359 16.91054687 20.09121094 15.76171875 20.08789062 C14.60285156 20.07951172 13.44398437 20.07113281 12.25 20.0625 C11.07566406 20.05798828 9.90132812 20.05347656 8.69140625 20.04882812 C5.79424905 20.03705106 2.89711807 20.01911588 0 20 C0 13.4 0 6.8 0 0 Z " fill="#0293FD" transform="translate(113,83)"/>
<path d="M0 0 C4.84146109 1.46710942 8.55948972 4.3512744 12 8 C12 8.66 12 9.32 12 10 C12.99 10.33 13.98 10.66 15 11 C16.58433348 13.12149798 17.96079646 15.17330351 19.3125 17.4375 C19.70767822 18.09911133 20.10285645 18.76072266 20.51000977 19.44238281 C24.91717717 27.15111799 27.80858857 35.4129069 30 44 C30.19505127 44.76328613 30.39010254 45.52657227 30.59106445 46.31298828 C32.42499939 54.73230575 32.33755584 63.20381449 32.31567383 71.77832031 C32.31251459 74.36306006 32.33604187 76.94665096 32.36132812 79.53125 C32.39621452 89.13571749 31.77555282 97.73555543 29 107 C28.67 107 28.34 107 28 107 C27.83031334 104.33349537 27.66418179 101.66684474 27.5 99 C27.45230469 98.25621094 27.40460938 97.51242188 27.35546875 96.74609375 C27.05564256 91.82037776 26.95513771 86.93485224 27 82 C27.99 82 28.98 82 30 82 C30 76.72 30 71.44 30 66 C29.01 66 28.02 66 27 66 C27 64.68 27 63.36 27 62 C26.01 62 25.02 62 24 62 C23.78866798 54.95559921 23.92034638 48.75887425 26 42 C25.34 42 24.68 42 24 42 C23.67 39.03 23.34 36.06 23 33 C20.525 33.495 20.525 33.495 18 34 C17.67 31.36 17.34 28.72 17 26 C17.66 26 18.32 26 19 26 C18.505 25.071875 18.01 24.14375 17.5 23.1875 C16 20 16 20 16 17 C12.04 17.495 12.04 17.495 8 18 C8.185625 17.443125 8.37125 16.88625 8.5625 16.3125 C9.09028722 13.52276756 8.85326318 11.70200008 8 9 C7.01 8.34 6.02 7.68 5 7 C4.3125 4.875 4.3125 4.875 4 3 C2.68 3.33 1.36 3.66 0 4 C0 2.68 0 1.36 0 0 Z " fill="#0D78F9" transform="translate(168,38)"/>
<path d="M0 0 C0.495 0.99 0.495 0.99 1 2 C0.34 2 -0.32 2 -1 2 C-0.34 3.65 0.32 5.3 1 7 C0.113125 7.226875 -0.77375 7.45375 -1.6875 7.6875 C-5.45198157 9.17908704 -7.20465875 11.13109714 -10 14 C-12.3125 14.8125 -12.3125 14.8125 -14 15 C-14 15.66 -14 16.32 -14 17 C-15.3921875 17.86625 -15.3921875 17.86625 -16.8125 18.75 C-20.14066398 20.71670325 -20.14066398 20.71670325 -21.375 23.8125 C-23.62860131 28.23302566 -26.94541244 31.17501865 -31 34 C-33.25390625 34.69921875 -33.25390625 34.69921875 -35 35 C-35 36.65 -35 38.3 -35 40 C-35.99 40 -36.98 40 -38 40 C-38 45.61 -38 51.22 -38 57 C-38.99 57.495 -38.99 57.495 -40 58 C-40.33 57.34 -40.66 56.68 -41 56 C-42.95294291 59.27291618 -43.24471499 61.71340798 -43.1875 65.5 C-43.18105469 66.4384375 -43.17460938 67.376875 -43.16796875 68.34375 C-43.01857816 70.70620585 -42.66710889 72.73716665 -42 75 C-40.0549 72.08235 -39.54723683 70.37462715 -39 67 C-38.67 67 -38.34 67 -38 67 C-37.71428571 74.42857143 -37.71428571 74.42857143 -40 78 C-39.34 78 -38.68 78 -38 78 C-37.81688932 82.0284349 -38.05841983 84.48375245 -40 88 C-40.64910154 86.41800369 -41.29414694 84.83434276 -41.9375 83.25 C-42.29714844 82.36828125 -42.65679687 81.4865625 -43.02734375 80.578125 C-47.44977883 68.85600792 -46.24003735 54.41161156 -41.4765625 43.03515625 C-35.72799457 31.21865551 -27.79532835 19.7667747 -17 12 C-16.01 11.67 -15.02 11.34 -14 11 C-14 10.34 -14 9.68 -14 9 C-11.8828125 7.4921875 -11.8828125 7.4921875 -9.125 5.875 C-8.22007813 5.33617187 -7.31515625 4.79734375 -6.3828125 4.2421875 C-4 3 -4 3 -2 3 C-2 2.34 -2 1.68 -2 1 C-1.34 0.67 -0.68 0.34 0 0 Z " fill="#29C4F9" transform="translate(70,48)"/>
<path d="M0 0 C2.45389226 3.6808384 2.26853779 6.43051278 2.22705078 10.68432617 C2.22734283 11.4650499 2.22763489 12.24577362 2.22793579 13.05015564 C2.22654224 15.63120633 2.21097993 18.21196848 2.1953125 20.79296875 C2.19158246 22.58229922 2.18873544 24.37163173 2.18673706 26.16096497 C2.1790999 30.87101885 2.15945069 35.58094943 2.1373291 40.29095459 C2.11687247 45.09694755 2.10773573 49.90296043 2.09765625 54.70898438 C2.07620489 64.1393771 2.04206792 73.5696783 2 83 C2.66 83 3.32 83 4 83 C3 85 3 85 1 88 C-1.10232534 83.71235207 -1.27919387 79.81849497 -1.24291992 75.13623047 C-1.24481827 74.36003357 -1.24671661 73.58383667 -1.24867249 72.78411865 C-1.25236563 70.22837093 -1.2416982 67.6729098 -1.23046875 65.1171875 C-1.22927616 63.33790114 -1.22882396 61.55861414 -1.2290802 59.77932739 C-1.22751794 56.0554814 -1.21924678 52.33173189 -1.20581055 48.60791016 C-1.18879642 43.83172964 -1.18499708 39.05565483 -1.18575573 34.27944756 C-1.18548403 30.60778797 -1.18000326 26.93615155 -1.17275429 23.26449966 C-1.16957006 21.50301412 -1.16760078 19.74152595 -1.16686058 17.98003769 C-1.16469583 15.52163961 -1.15594933 13.06335436 -1.14526367 10.60498047 C-1.14571686 9.87556244 -1.14617004 9.14614441 -1.14663696 8.3946228 C-1.12706994 5.32063736 -0.98013587 2.94040762 0 0 Z " fill="#DEF2FE" transform="translate(92,69)"/>
<path d="M0 0 C1.39211215 4.17633644 -0.0464421 5.78960515 -1.9375 9.6875 C-2.50339844 10.86699219 -3.06929687 12.04648438 -3.65234375 13.26171875 C-4.09707031 14.16535156 -4.54179687 15.06898438 -5 16 C-5.66 16 -6.32 16 -7 16 C-7.165 16.845625 -7.33 17.69125 -7.5 18.5625 C-11.33387041 27.34845302 -23.3059664 34.56282393 -32 38 C-34.375 37.6875 -34.375 37.6875 -36 37 C-35 35 -35 35 -33 34 C-32.34786708 31.97536745 -32.34786708 31.97536745 -32 30 C-29.36 30 -26.72 30 -24 30 C-24 27.36 -24 24.72 -24 22 C-21.36 22.33 -18.72 22.66 -16 23 C-16 20.03 -16 17.06 -16 14 C-15.01 14 -14.02 14 -13 14 C-10.99690671 13.68578929 -8.99628664 13.3548954 -7 13 C-7 11.02 -7 9.04 -7 7 C-6.34 6.67 -5.68 6.34 -5 6 C-3.86649466 3.98330173 -3.86649466 3.98330173 -3 2 C-2.01 2 -1.02 2 0 2 C0 1.34 0 0.68 0 0 Z " fill="#0B7EF9" transform="translate(192,154)"/>
<path d="M0 0 C2.64 0 5.28 0 8 0 C8.04775179 2.67410051 8.05008694 5.3271787 8 8 C7.99613281 8.70511719 7.99226563 9.41023438 7.98828125 10.13671875 C7.82668406 13.06218513 7.55644901 15.35985114 5.59765625 17.61328125 C3.9375 19 3.9375 19 1 21 C1.66 21.99 2.32 22.98 3 24 C2.505 24.4125 2.01 24.825 1.5 25.25 C-0.43386092 27.12202338 -0.43386092 27.12202338 0 31 C2.64 31.33 5.28 31.66 8 32 C6.52307692 37.66153846 6.52307692 37.66153846 3.875 39.375 C3.25625 39.58125 2.6375 39.7875 2 40 C0.9790625 38.88625 0.9790625 38.88625 -0.0625 37.75 C-3.03073132 34.75618047 -6.28714872 32.96562715 -10 31 C-10 30.34 -10 29.68 -10 29 C-9.0925 28.29875 -8.185 27.5975 -7.25 26.875 C-3.46780575 23.74707158 -1.22480554 20.80771372 0 16 C0.45073144 10.67354189 0.23298388 5.3327422 0 0 Z " fill="#1083F7" transform="translate(168,80)"/>
<path d="M0 0 C0.495 0.99 0.495 0.99 1 2 C0.34 2 -0.32 2 -1 2 C-0.34 3.65 0.32 5.3 1 7 C0.113125 7.226875 -0.77375 7.45375 -1.6875 7.6875 C-5.45198157 9.17908704 -7.20465875 11.13109714 -10 14 C-12.3125 14.8125 -12.3125 14.8125 -14 15 C-14 15.66 -14 16.32 -14 17 C-15.3921875 17.86625 -15.3921875 17.86625 -16.8125 18.75 C-20.14066398 20.71670325 -20.14066398 20.71670325 -21.375 23.8125 C-23.65454652 28.28391817 -27.13095253 30.89373386 -31 34 C-31 27.7302032 -28.56556513 22.70431537 -24.35546875 18.12109375 C-16.83037669 11 -16.83037669 11 -14 11 C-14 10.34 -14 9.68 -14 9 C-11.8828125 7.4921875 -11.8828125 7.4921875 -9.125 5.875 C-8.22007813 5.33617187 -7.31515625 4.79734375 -6.3828125 4.2421875 C-4 3 -4 3 -2 3 C-2 2.34 -2 1.68 -2 1 C-1.34 0.67 -0.68 0.34 0 0 Z " fill="#10BBFA" transform="translate(70,48)"/>
<path d="M0 0 C0 1.98 0 3.96 0 6 C-6.98924344 7.21293909 -13.46329285 6.74007766 -20.5 6.0625 C-21.60859375 5.96259766 -22.7171875 5.86269531 -23.859375 5.75976562 C-26.57370457 5.514072 -29.28707161 5.26063764 -32 5 C-32 4.34 -32 3.68 -32 3 C-34.97 2.505 -34.97 2.505 -38 2 C-38 1.67 -38 1.34 -38 1 C-33.39187551 0.85660392 -28.7837213 0.71421847 -24.17553711 0.57275391 C-22.60912236 0.52452665 -21.04271596 0.47602721 -19.47631836 0.42724609 C-17.21991096 0.35702446 -14.96347495 0.28779396 -12.70703125 0.21875 C-11.66298882 0.18593933 -11.66298882 0.18593933 -10.59785461 0.15246582 C-7.06378443 0.04531153 -3.53571155 -0.02395063 0 0 Z " fill="#0190FB" transform="translate(152,161)"/>
<path d="M0 0 C0.99 0.33 1.98 0.66 3 1 C3.99 1 4.98 1 6 1 C6 0.67 6 0.34 6 0 C12.27 0 18.54 0 25 0 C25 0.66 25 1.32 25 2 C26.98 2 28.96 2 31 2 C28.21054789 4.78945211 26.13934591 4.95294886 22.25097656 5.11352539 C21.22456055 5.10828857 20.19814453 5.10305176 19.140625 5.09765625 C18.02558594 5.09443359 16.91054687 5.09121094 15.76171875 5.08789062 C14.60285156 5.07951172 13.44398437 5.07113281 12.25 5.0625 C11.07566406 5.05798828 9.90132812 5.05347656 8.69140625 5.04882812 C5.79421928 5.03705094 2.89713546 5.02060326 0 5 C0 3.35 0 1.7 0 0 Z " fill="#0C96F9" transform="translate(113,98)"/>
<path d="M0 0 C-1.98 0.99 -1.98 0.99 -4 2 C-3.34 2.33 -2.68 2.66 -2 3 C-2 3.66 -2 4.32 -2 5 C-15.2 5 -28.4 5 -42 5 C-42 4.67 -42 4.34 -42 4 C-36.06 3.67 -30.12 3.34 -24 3 C-29.61 2.67 -35.22 2.34 -41 2 C-41 1.67 -41 1.34 -41 1 C-36.76829902 0.85543162 -32.53652963 0.7131151 -28.3046875 0.57275391 C-26.8694461 0.52484822 -25.43422398 0.47636067 -23.99902344 0.42724609 C-15.99686669 0.15381117 -8.00824219 -0.06268683 0 0 Z " fill="#0593F9" transform="translate(146,56)"/>
<path d="M0 0 C0.33 0 0.66 0 1 0 C2.11767378 4.50653235 2.17818755 8.94753575 2.203125 13.5625 C2.20882507 14.39023926 2.21452515 15.21797852 2.22039795 16.07080078 C2.22982453 17.8224155 2.2363726 19.57404777 2.24023438 21.32568359 C2.24986688 23.96354599 2.28088147 26.60060385 2.3125 29.23828125 C2.3716616 38.94903948 1.83228357 47.63594933 -1 57 C-1.33 57 -1.66 57 -2 57 C-2.16968666 54.33349537 -2.33581821 51.66684474 -2.5 49 C-2.54769531 48.25621094 -2.59539062 47.51242188 -2.64453125 46.74609375 C-2.94435744 41.82037776 -3.04486229 36.93485224 -3 32 C-2.01 32 -1.02 32 0 32 C0 21.44 0 10.88 0 0 Z " fill="#3082FB" transform="translate(198,88)"/>
<path d="M0 0 C6.05089175 0.09357049 12.10138507 0.19967313 18.15185547 0.31738281 C20.21006249 0.35565995 22.26833612 0.39051504 24.32666016 0.421875 C27.28572388 0.46755278 30.24432957 0.52554302 33.203125 0.5859375 C34.58301605 0.60326431 34.58301605 0.60326431 35.99078369 0.62094116 C36.8513739 0.64081085 37.71196411 0.66068054 38.59863281 0.68115234 C39.35364075 0.69447601 40.10864868 0.70779968 40.88653564 0.7215271 C43 1 43 1 47 3 C31.16 3 15.32 3 -1 3 C-0.67 2.01 -0.34 1.02 0 0 Z " fill="#4BAFFB" transform="translate(97,61)"/>
<path d="M0 0 C2.64 0 5.28 0 8 0 C8.09752461 5.46137814 7.77249145 10.59255982 7 16 C5.35 16.66 3.7 17.32 2 18 C1.93941406 17.11957031 1.87882813 16.23914063 1.81640625 15.33203125 C1.73261719 14.17058594 1.64882812 13.00914063 1.5625 11.8125 C1.48128906 10.66394531 1.40007812 9.51539062 1.31640625 8.33203125 C1.04596188 5.48401829 0.62478253 2.78789518 0 0 Z " fill="#037DF9" transform="translate(168,80)"/>
<path d="M0 0 C1.134375 0.020625 2.26875 0.04125 3.4375 0.0625 C4.5625 5.8125 4.5625 5.8125 3.4375 8.0625 C4.0975 8.3925 4.7575 8.7225 5.4375 9.0625 C6.03105614 11.71110427 6.17959269 14.35447322 6.4375 17.0625 C4.16244996 14.89578568 2.20174908 12.66686769 0.4375 10.0625 C0.4375 9.4025 0.4375 8.7425 0.4375 8.0625 C-0.2225 8.0625 -0.8825 8.0625 -1.5625 8.0625 C-2.5525 5.7525 -3.5425 3.4425 -4.5625 1.0625 C-3.5625 0.0625 -3.5625 0.0625 0 0 Z " fill="#0AC0FB" transform="translate(35.5625,135.9375)"/>
<path d="M0 0 C0.66 0 1.32 0 2 0 C2.88135537 4.56189542 3.16406792 8.91826141 3.1875 13.5625 C3.20167969 14.84253906 3.21585938 16.12257812 3.23046875 17.44140625 C3.0137158 20.78821876 2.45213997 23.00962481 1 26 C-1 23 -1 23 -1 20 C-1.01160156 19.12988281 -1.02320313 18.25976562 -1.03515625 17.36328125 C-1.08801874 11.4653379 -0.89700719 5.83054675 0 0 Z " fill="#0475FA" transform="translate(193,128)"/>
<path d="M0 0 C1.58409994 0.11487748 3.16728963 0.24234508 4.75 0.375 C6.07257813 0.47941406 6.07257813 0.47941406 7.421875 0.5859375 C9.99066382 0.99850055 11.75841015 1.71160957 14 3 C13.67 3.99 13.34 4.98 13 6 C13 5.34 13 4.68 13 4 C12.34 4 11.68 4 11 4 C11.33 4.99 11.66 5.98 12 7 C8.04 6.67 4.08 6.34 0 6 C0 4.02 0 2.04 0 0 Z " fill="#0787F9" transform="translate(136,121)"/>
<path d="M0 0 C0.66 0.33 1.32 0.66 2 1 C-0.87270886 6.62572152 -0.87270886 6.62572152 -3.9765625 7.65625 C-9.29502882 8.35248559 -9.29502882 8.35248559 -12 7 C-12 7.66 -12 8.32 -12 9 C-12.99 9 -13.98 9 -15 9 C-15 8.34 -15 7.68 -15 7 C-13.06374902 6.01836578 -11.12595461 5.03977546 -9.1875 4.0625 C-8.10855469 3.51722656 -7.02960938 2.97195312 -5.91796875 2.41015625 C-3 1 -3 1 0 0 Z " fill="#12ABF7" transform="translate(88,39)"/>
<path d="M0 0 C0.33 0 0.66 0 1 0 C1.28571429 7.42857143 1.28571429 7.42857143 -1 11 C-0.34 11 0.32 11 1 11 C1.17942163 14.94727588 1.09350689 17.5980513 -1 21 C-3.16306173 16.4936214 -4.69665374 13.10879409 -4 8 C-2.5625 6.4375 -2.5625 6.4375 -1 5 C-0.27802838 2.39388923 -0.27802838 2.39388923 0 0 Z " fill="#04C0FB" transform="translate(31,115)"/>
<path d="M0 0 C5.28 0.66 10.56 1.32 16 2 C16 2.99 16 3.98 16 5 C15.01 4.34 14.02 3.68 13 3 C13.33 4.65 13.66 6.3 14 8 C9.02790438 6.23570801 4.56561939 3.6060834 0 1 C0 0.67 0 0.34 0 0 Z " fill="#15AEF8" transform="translate(71,176)"/>
<path d="M0 0 C0.66 0 1.32 0 2 0 C2.33 1.32 2.66 2.64 3 4 C1.35 4.33 -0.3 4.66 -2 5 C-1.34 3.35 -0.68 1.7 0 0 Z M-4 5 C-3.34 5.33 -2.68 5.66 -2 6 C-2.0625 8.3125 -2.0625 8.3125 -3 11 C-6.3125 12.6875 -6.3125 12.6875 -10 14 C-11.34013497 14.65288627 -12.67741528 15.31225595 -14 16 C-14 15.34 -14 14.68 -14 14 C-12.3203125 12.34375 -12.3203125 12.34375 -10.125 10.5 C-8.00964496 8.71066742 -5.95980876 6.95980876 -4 5 Z " fill="#FBFAF3" transform="translate(186,172)"/>
<path d="M0 0 C-0.33 0.99 -0.66 1.98 -1 3 C-2.8125 3.66015625 -2.8125 3.66015625 -5 4.0625 C-7.14055297 4.42700873 -7.14055297 4.42700873 -9 5 C-9.33 5.66 -9.66 6.32 -10 7 C-13.63 7 -17.26 7 -21 7 C-17.65308412 4.76872275 -14.28388372 3.61467238 -10.5 2.375 C-9.82324219 2.14554688 -9.14648438 1.91609375 -8.44921875 1.6796875 C-5.51387986 0.70703083 -3.11291919 0 0 0 Z " fill="#21A5F8" transform="translate(111,32)"/>
<path d="M0 0 C1.98 0.66 3.96 1.32 6 2 C6.66 1.34 7.32 0.68 8 0 C10.125 0.375 10.125 0.375 12 1 C12.33 2.65 12.66 4.3 13 6 C12.01 6.66 11.02 7.32 10 8 C8.51714758 7.04737966 7.03881799 6.08771595 5.5625 5.125 C4.73878906 4.59132812 3.91507813 4.05765625 3.06640625 3.5078125 C1 2 1 2 0 0 Z " fill="#0DB2F9" transform="translate(59,168)"/>
<path d="M0 0 C0.33 0.66 0.66 1.32 1 2 C0.34 2 -0.32 2 -1 2 C-0.34 3.65 0.32 5.3 1 7 C0.05125 7.309375 -0.8975 7.61875 -1.875 7.9375 C-4.86080408 8.87394742 -4.86080408 8.87394742 -7 10 C-7 9.34 -7 8.68 -7 8 C-7.598125 8.350625 -8.19625 8.70125 -8.8125 9.0625 C-11 10 -11 10 -14 9 C-12.37829621 7.99466333 -10.75252763 6.99588093 -9.125 6 C-7.76761719 5.1646875 -7.76761719 5.1646875 -6.3828125 4.3125 C-4 3 -4 3 -2 3 C-2 2.34 -2 1.68 -2 1 C-1.34 0.67 -0.68 0.34 0 0 Z " fill="#1FB7F7" transform="translate(70,48)"/>
<path d="M0 0 C2.64 0 5.28 0 8 0 C6.52307692 5.66153846 6.52307692 5.66153846 3.875 7.375 C2.946875 7.684375 2.946875 7.684375 2 8 C0.4375 6.25 0.4375 6.25 -1 4 C-0.6875 1.75 -0.6875 1.75 0 0 Z " fill="#087EF8" transform="translate(168,112)"/>
<path d="M0 0 C1.6274637 0.61855631 3.25190356 1.24507305 4.875 1.875 C5.77992188 2.22304688 6.68484375 2.57109375 7.6171875 2.9296875 C10 4 10 4 12 6 C10.35 6.33 8.7 6.66 7 7 C7 6.34 7 5.68 7 5 C6.01 5.66 5.02 6.32 4 7 C1.3125 7.125 1.3125 7.125 -1 7 C-1 6.01 -1 5.02 -1 4 C-0.34 4 0.32 4 1 4 C1.33 3.34 1.66 2.68 2 2 C1.34 2 0.68 2 0 2 C0 1.34 0 0.68 0 0 Z " fill="#117DF3" transform="translate(156,32)"/>
<path d="M0 0 C-1.32 0.33 -2.64 0.66 -4 1 C-3.67 1.99 -3.34 2.98 -3 4 C-4.32 4 -5.64 4 -7 4 C-7 4.66 -7 5.32 -7 6 C-9.64 6 -12.28 6 -15 6 C-13.68 5.67 -12.36 5.34 -11 5 C-10.67 3.68 -10.34 2.36 -10 1 C-8.71073008 0.63720544 -7.41846728 0.28503302 -6.125 -0.0625 C-5.40570313 -0.25972656 -4.68640625 -0.45695313 -3.9453125 -0.66015625 C-2 -1 -2 -1 0 0 Z " fill="#E8F5F9" transform="translate(159,193)"/>
<path d="M0 0 C1.65 0 3.3 0 5 0 C6.125 1.75 6.125 1.75 7 4 C6.125 6.25 6.125 6.25 5 8 C3.68 8 2.36 8 1 8 C0.67 5.36 0.34 2.72 0 0 Z " fill="#0376FA" transform="translate(185,64)"/>
<path d="M0 0 C0.33 0.99 0.66 1.98 1 3 C0.34 3 -0.32 3 -1 3 C-1.061875 3.556875 -1.12375 4.11375 -1.1875 4.6875 C-2.35102916 7.99908299 -4.44462887 9.61498695 -7 12 C-8.1080614 13.10025815 -9.2122511 14.20442942 -10.3125 15.3125 C-11.199375 16.199375 -12.08625 17.08625 -13 18 C-13.99 17.67 -14.98 17.34 -16 17 C-14.75482035 15.86966702 -13.50363348 14.74594964 -12.25 13.625 C-11.55390625 12.99851563 -10.8578125 12.37203125 -10.140625 11.7265625 C-8 10 -8 10 -5.77734375 8.8984375 C-3.79332918 8.15487787 -3.79332918 8.15487787 -3.3125 6 C-3.1578125 5.01 -3.1578125 5.01 -3 4 C-2.67 3.34 -2.34 2.68 -2 2 C-1.34 2 -0.68 2 0 2 C0 1.34 0 0.68 0 0 Z " fill="#D1E6FC" transform="translate(187,168)"/>
<path d="M0 0 C-1.29299694 2.88437779 -2.65941363 4.87219421 -5 7 C-5 6.34 -5 5.68 -5 5 C-5.99 4.67 -6.98 4.34 -8 4 C-7.625 2.0625 -7.625 2.0625 -7 0 C-4.3333581 -1.33332095 -2.83319697 -0.67102033 0 0 Z " fill="#EDF9FB" transform="translate(40,73)"/>
<path d="M0 0 C0 0.66 0 1.32 0 2 C-6.03503763 3.50875941 -11.89738369 2.64186094 -18 2 C-18 1.67 -18 1.34 -18 1 C-15.93939936 0.63494484 -13.87640368 0.28339285 -11.8125 -0.0625 C-10.66394531 -0.25972656 -9.51539063 -0.45695312 -8.33203125 -0.66015625 C-5.21351634 -0.97822284 -3.00194217 -0.80843264 0 0 Z " fill="#E9F2FA" transform="translate(150,27)"/>
<path d="M0 0 C1.32 0 2.64 0 4 0 C4.99 2.31 5.98 4.62 7 7 C5.1875 7.625 5.1875 7.625 3 8 C2.01 7.34 1.02 6.68 0 6 C-0.1875 2.875 -0.1875 2.875 0 0 Z " fill="#16AAFA" transform="translate(88,152)"/>
<path d="M0 0 C0.99 0.33 1.98 0.66 3 1 C-0.06093224 4.93548431 -2.49115974 7.68116787 -7 10 C-5.7771055 5.10842202 -4.3522544 2.65381366 0 0 Z " fill="#03BCFD" transform="translate(45,72)"/>
<path d="M0 0 C0.33 0 0.66 0 1 0 C1.24942657 2.24784424 1.47383488 4.49847506 1.6875 6.75 C1.81511719 8.00296875 1.94273437 9.2559375 2.07421875 10.546875 C1.99485632 14.23931642 1.53835868 15.41596392 -1 18 C-1.99 17.67 -2.98 17.34 -4 17 C-3.525625 16.236875 -3.05125 15.47375 -2.5625 14.6875 C-0.2235443 10.10888388 -0.26043795 5.0471078 0 0 Z " fill="#2D8DF9" transform="translate(169,85)"/>
<path d="M0 0 C6.57142857 4 6.57142857 4 8 8 C6.35 8 4.7 8 3 8 C0 2.25 0 2.25 0 0 Z " fill="#EDF5F7" transform="translate(159,70)"/>
<path d="M0 0 C1.04449911 3.13349732 0.93423645 3.98968256 0 7 C0 6.34 0 5.68 0 5 C-1.98 5.66 -3.96 6.32 -6 7 C-6.66 6.34 -7.32 5.68 -8 5 C-4.04 2.525 -4.04 2.525 0 0 Z " fill="#0C80F6" transform="translate(167,153)"/>
<path d="M0 0 C0.99 0.33 1.98 0.66 3 1 C1.71034824 2.37562854 0.37310707 3.70766393 -1 5 C-1.66 5 -2.32 5 -3 5 C-3 5.66 -3 6.32 -3 7 C-2.34 7.33 -1.68 7.66 -1 8 C-2.65 8 -4.3 8 -6 8 C-6.33 7.01 -6.66 6.02 -7 5 C-6.34 4.34 -5.68 3.68 -5 3 C-3.68 3 -2.36 3 -1 3 C-0.67 2.01 -0.34 1.02 0 0 Z " fill="#DAEBF9" transform="translate(161,104)"/>
<path d="M0 0 C1.32 0 2.64 0 4 0 C4 0.66 4 1.32 4 2 C6.97 2.495 6.97 2.495 10 3 C9.67 4.65 9.34 6.3 9 8 C5.27885429 5.68462045 2.38770339 3.71420527 0 0 Z " fill="#26BDF8" transform="translate(49,160)"/>
<path d="M0 0 C0.99 0.66 1.98 1.32 3 2 C2.525625 2.391875 2.05125 2.78375 1.5625 3.1875 C-0.35179633 5.40808374 -0.61266988 7.13375709 -1 10 C-1.66 10 -2.32 10 -3 10 C-3 7.03 -3 4.06 -3 1 C-2.01 0.67 -1.02 0.34 0 0 Z " fill="#0380FA" transform="translate(168,102)"/>
<path d="M0 0 C0.33 0 0.66 0 1 0 C1.27827115 1.55771352 1.52141944 3.12172314 1.75 4.6875 C1.88921875 5.55761719 2.0284375 6.42773438 2.171875 7.32421875 C1.94126464 10.91440283 0.39983417 12.41878302 -2 15 C-1.85930804 12.87465341 -1.71229079 10.74972471 -1.5625 8.625 C-1.48128906 7.44164063 -1.40007813 6.25828125 -1.31640625 5.0390625 C-1 2 -1 2 0 0 Z " fill="#10C6FA" transform="translate(28,93)"/>
<path d="M0 0 C0.33 0 0.66 0 1 0 C1 3.3 1 6.6 1 10 C-0.32 10 -1.64 10 -3 10 C-3.3648363 5.74357648 -2.47460354 3.46444495 0 0 Z " fill="#1380F8" transform="translate(174,142)"/>
<path d="M0 0 C-3.28463659 2.18975773 -6.20696275 2.99806563 -10 4 C-10.33 2.68 -10.66 1.36 -11 0 C-7.18243176 -1.37432457 -3.92744671 -0.67975039 0 0 Z " fill="#ECF6FC" transform="translate(104,33)"/>
<path d="M0 0 C1.65 0 3.3 0 5 0 C5 2.31 5 4.62 5 7 C3.02 5.35 1.04 3.7 -1 2 C-0.67 1.34 -0.34 0.68 0 0 Z " fill="#17BFFC" transform="translate(43,152)"/>
<path d="M0 0 C0.33 0 0.66 0 1 0 C1.63019694 9.17286652 1.63019694 9.17286652 -1 12.625 C-1.66 13.07875 -2.32 13.5325 -3 14 C-2.69024532 12.22868439 -2.37709575 10.45796222 -2.0625 8.6875 C-1.88847656 7.70136719 -1.71445313 6.71523437 -1.53515625 5.69921875 C-1 3 -1 3 0 0 Z " fill="#F0F3F7" transform="translate(172,136)"/>
<path d="M0 0 C1.48117801 0.28127421 2.95993249 0.57533732 4.4375 0.875 C5.67306641 1.11863281 5.67306641 1.11863281 6.93359375 1.3671875 C7.61550781 1.57601562 8.29742187 1.78484375 9 2 C9.33 2.66 9.66 3.32 10 4 C6.6868604 5.04127245 5.39801692 5.18574123 2.1875 3.6875 C1.465625 3.130625 0.74375 2.57375 0 2 C0 1.34 0 0.68 0 0 Z " fill="#1392FB" transform="translate(136,83)"/>
<path d="M0 0 C0.66 0 1.32 0 2 0 C2.33 1.98 2.66 3.96 3 6 C1.68 6.33 0.36 6.66 -1 7 C-2.32 5.35 -3.64 3.7 -5 2 C-3.68 2.33 -2.36 2.66 -1 3 C-0.67 2.01 -0.34 1.02 0 0 Z " fill="#E6F1FB" transform="translate(181,41)"/>
<path d="M0 0 C1.65 0.33 3.3 0.66 5 1 C4.67 2.65 4.34 4.3 4 6 C2.35 5.67 0.7 5.34 -1 5 C-0.67 3.35 -0.34 1.7 0 0 Z " fill="#04C0FB" transform="translate(35,82)"/>
<path d="M0 0 C0.66 0 1.32 0 2 0 C2 0.99 2 1.98 2 3 C2.66 3.33 3.32 3.66 4 4 C4 5.65 4 7.3 4 9 C3.01 9.495 3.01 9.495 2 10 C-1 6.25 -1 6.25 -1 4 C-0.34 4 0.32 4 1 4 C0.67 2.68 0.34 1.36 0 0 Z " fill="#067EF5" transform="translate(164,67)"/>
<path d="M0 0 C0.99 0.33 1.98 0.66 3 1 C1.88424427 4.34726719 1.48655378 4.62079748 -1.4375 6.25 C-3.2009375 7.11625 -3.2009375 7.11625 -5 8 C-5.66 7.67 -6.32 7.34 -7 7 C-6.4946875 6.57847656 -5.989375 6.15695313 -5.46875 5.72265625 C-4.8190625 5.17480469 -4.169375 4.62695312 -3.5 4.0625 C-2.8503125 3.51722656 -2.200625 2.97195312 -1.53125 2.41015625 C-1.0259375 1.94480469 -0.520625 1.47945312 0 1 C0 0.67 0 0.34 0 0 Z " fill="#F0FAF7" transform="translate(77,40)"/>
<path d="M0 0 C0.33 0 0.66 0 1 0 C1.19658808 1.41543415 1.38187546 2.83244031 1.5625 4.25 C1.66691406 5.03890625 1.77132812 5.8278125 1.87890625 6.640625 C2.00027349 9.00532874 1.69633257 10.7511037 1 13 C-0.32 12.67 -1.64 12.34 -3 12 C-2.690625 11.505 -2.38125 11.01 -2.0625 10.5 C-0.58355618 7.02013219 -0.37597149 3.75971491 0 0 Z " fill="#BCD9F9" transform="translate(147,89)"/>
<path d="M0 0 C0.33 0.99 0.66 1.98 1 3 C-1.25 3.6875 -1.25 3.6875 -4 4 C-6.3125 2.5625 -6.3125 2.5625 -8 1 C-2.25 -1.125 -2.25 -1.125 0 0 Z " fill="#E0ECFA" transform="translate(172,34)"/>
<path d="M0 0 C1 3 1 3 -0.4375 6.1875 C-1.2109375 7.5796875 -1.2109375 7.5796875 -2 9 C-4 6 -4 6 -3.625 3.8125 C-3.41875 3.214375 -3.2125 2.61625 -3 2 C-2.01 2 -1.02 2 0 2 C0 1.34 0 0.68 0 0 Z " fill="#0D70F9" transform="translate(192,154)"/>
<path d="M0 0 C-2 2 -2 2 -4.1640625 2.1953125 C-5.38222656 2.16050781 -5.38222656 2.16050781 -6.625 2.125 C-7.44226563 2.10695313 -8.25953125 2.08890625 -9.1015625 2.0703125 C-9.72804687 2.04710938 -10.35453125 2.02390625 -11 2 C-11.33 1.34 -11.66 0.68 -12 0 C-7.74433453 -1.16063604 -4.3164922 -0.76173392 0 0 Z " fill="#1893F8" transform="translate(144,100)"/>
<path d="M0 0 C-2 3 -2 3 -4.1640625 3.51171875 C-4.97617188 3.56972656 -5.78828125 3.62773438 -6.625 3.6875 C-7.85089844 3.78611328 -7.85089844 3.78611328 -9.1015625 3.88671875 C-9.72804688 3.92410156 -10.35453125 3.96148437 -11 4 C-8.12680193 0.87807733 -4.22911043 -2.11455521 0 0 Z " fill="#3CB5FA" transform="translate(90,40)"/>
<path d="M0 0 C2.4375 0.8125 2.4375 0.8125 5 2 C5.33 2.99 5.66 3.98 6 5 C5.01 5.66 4.02 6.32 3 7 C0 3.375 0 3.375 0 0 Z " fill="#F3F5F5" transform="translate(143,81)"/>
<path d="M0 0 C-1.1875 1.5 -1.1875 1.5 -3 3 C-5.6875 3.1875 -5.6875 3.1875 -8 3 C-8 2.01 -8 1.02 -8 0 C-4.71023192 -1.09658936 -3.28696233 -0.79953138 0 0 Z " fill="#0385FA" transform="translate(163,36)"/>
<path d="M0 0 C0.99 0 1.98 0 3 0 C1.9024777 2.99324263 1.32317108 3.84610901 -1.625 5.25 C-2.40875 5.4975 -3.1925 5.745 -4 6 C-4.33 5.01 -4.66 4.02 -5 3 C-4.01 2.67 -3.02 2.34 -2 2 C-1.34 2.33 -0.68 2.66 0 3 C0 2.01 0 1.02 0 0 Z " fill="#1F83FA" transform="translate(172,181)"/>
<path d="M0 0 C1.32 0.66 2.64 1.32 4 2 C3.67 3.98 3.34 5.96 3 8 C1.10786631 5.61426621 -0.02391783 3.92824652 -1 1 C-0.67 0.67 -0.34 0.34 0 0 Z " fill="#1BC4F7" transform="translate(32,136)"/>
<path d="M0 0 C0.6875 1.75 0.6875 1.75 1 4 C-0.4375 6.25 -0.4375 6.25 -2 8 C-2.66 7.67 -3.32 7.34 -4 7 C-3.39816251 4.97954558 -2.72693904 2.97888961 -2 1 C-1.34 0.67 -0.68 0.34 0 0 Z " fill="#E8F8FB" transform="translate(29,87)"/>
<path d="M0 0 C0.99 0 1.98 0 3 0 C3.36923077 4.55384615 3.36923077 4.55384615 1.5 6.8125 C1.005 7.204375 0.51 7.59625 0 8 C0 5.36 0 2.72 0 0 Z " fill="#02C4FC" transform="translate(26,109)"/>
<path d="M0 0 C0.66 0 1.32 0 2 0 C0.92598892 2.91517292 0.22189824 4.77810176 -2 7 C-2 6.34 -2 5.68 -2 5 C-2.99 5.33 -3.98 5.66 -5 6 C-4.34 4.68 -3.68 3.36 -3 2 C-2.01 2.33 -1.02 2.66 0 3 C0 2.01 0 1.02 0 0 Z " fill="#E7F2FC" transform="translate(166,97)"/>
<path d="M0 0 C0.66 1.32 1.32 2.64 2 4 C2.99 4 3.98 4 5 4 C4.67 5.98 4.34 7.96 4 10 C1.16625119 6.79663178 0.4794463 4.21912747 0 0 Z " fill="#15C7F7" transform="translate(27,126)"/>
<path d="M0 0 C0.66 0 1.32 0 2 0 C2 0.66 2 1.32 2 2 C2.99 2 3.98 2 5 2 C4.34 3.32 3.68 4.64 3 6 C1.68 4.68 0.36 3.36 -1 2 C-0.67 1.34 -0.34 0.68 0 0 Z " fill="#228BFD" transform="translate(163,110)"/>
<path d="M0 0 C1.65 0 3.3 0 5 0 C5.66 1.98 6.32 3.96 7 6 C6.34 6 5.68 6 5 6 C4.67 4.68 4.34 3.36 4 2 C2.68 2.33 1.36 2.66 0 3 C0 2.01 0 1.02 0 0 Z " fill="#F7FCF3" transform="translate(193,66)"/>
<path d="M0 0 C1.98 0.66 3.96 1.32 6 2 C6.66 1.34 7.32 0.68 8 0 C7.67 1.65 7.34 3.3 7 5 C3.34683329 3.75023244 2.21934164 3.32901247 0 0 Z " fill="#29B9F8" transform="translate(59,168)"/>
<path d="M0 0 C0.66 1.32 1.32 2.64 2 4 C1.34 4.66 0.68 5.32 0 6 C-1.65 4.68 -3.3 3.36 -5 2 C-2 0 -2 0 0 0 Z " fill="#D6EBFA" transform="translate(151,120)"/>
<path d="M0 0 C2.35953094 2.35953094 2.49141413 3.77895617 3 7 C2.01 7.495 2.01 7.495 1 8 C-0.42944945 5.64561267 -1.08661261 4.51967567 -0.625 1.75 C-0.41875 1.1725 -0.2125 0.595 0 0 Z " fill="#267DFA" transform="translate(192,67)"/>
<path d="M0 0 C-0.99 0.495 -0.99 0.495 -2 1 C-2 1.99 -2 2.98 -2 4 C-3.98 3.34 -5.96 2.68 -8 2 C-4.77208445 -0.1519437 -3.71599191 -0.20086443 0 0 Z " fill="#1788F7" transform="translate(164,66)"/>
</svg>
